<?xml version="1.0" standalone="no"?>
<!DOCTYPE svg PUBLIC "-//W3C//DTD SVG 20010904//EN"
 "http://www.w3.org/TR/2001/REC-SVG-20010904/DTD/svg10.dtd">
<svg version="1.0" xmlns="http://www.w3.org/2000/svg"
 width="1280.000000pt" height="920.000000pt" viewBox="0 0 1280.000000 920.000000"
 preserveAspectRatio="xMidYMid meet">
<metadata>
Created by potrace 1.15, written by Peter Selinger 2001-2017
</metadata>
<g transform="translate(0.000000,920.000000) scale(0.100000,-0.100000)"
fill="#000000" stroke="none">
<path d="M8090 9173 c-160 -21 -536 -88 -607 -109 -108 -31 -196 -77 -333
-173 -185 -129 -396 -253 -525 -308 -80 -34 -282 -93 -320 -93 -35 0 -98 27
-157 68 -61 41 -100 52 -187 52 -67 0 -84 -4 -142 -34 -36 -18 -90 -41 -121
-50 -62 -18 -88 -46 -88 -95 0 -19 8 -35 21 -45 l22 -15 -27 -23 c-14 -13 -31
-38 -36 -57 -9 -32 -7 -37 26 -68 19 -18 29 -33 22 -33 -16 0 -37 -32 -49 -73
-8 -27 -4 -34 27 -63 34 -33 34 -34 19 -63 -22 -43 -19 -59 16 -92 22 -21 41
-29 67 -29 19 0 43 -7 53 -16 32 -29 93 -43 185 -44 135 0 206 29 219 91 10
45 90 144 143 177 53 33 265 105 357 121 33 5 123 15 200 21 77 6 158 15 180
20 22 4 78 11 125 15 355 26 467 55 614 155 65 44 177 96 282 129 l41 13 56
-59 c32 -33 91 -89 132 -124 41 -35 75 -66 75 -69 0 -3 -28 -16 -62 -29 -132
-51 -379 -184 -538 -288 -414 -273 -1380 -961 -1380 -983 0 -5 -21 -11 -47
-15 -181 -22 -369 -79 -551 -165 -283 -135 -431 -290 -556 -582 -76 -177 -133
-253 -390 -517 -309 -316 -432 -495 -446 -643 -7 -81 -41 -158 -144 -326 -31
-52 -73 -125 -92 -164 -100 -198 -292 -478 -387 -564 -70 -64 -117 -84 -197
-84 -103 0 -300 -28 -394 -55 -213 -62 -374 -140 -555 -268 -64 -46 -165 -115
-226 -153 -148 -93 -239 -162 -370 -280 -312 -280 -492 -409 -732 -525 l-103
-49 -51 39 c-29 22 -77 49 -107 60 -75 29 -225 44 -362 37 l-115 -6 -73 35
c-95 45 -121 45 -172 -2 -91 -81 -161 -290 -180 -534 -6 -79 -31 -272 -56
-429 -84 -532 -91 -657 -49 -806 47 -165 89 -252 141 -293 46 -36 192 -23 277
26 57 33 68 69 65 228 l-2 140 37 70 c49 93 164 245 328 435 l135 155 111 55
c121 60 169 97 178 141 6 24 21 35 99 72 67 32 113 63 165 110 112 103 163
128 762 368 52 21 174 61 270 88 348 100 490 153 914 346 549 249 690 323
1189 625 134 80 221 127 231 124 24 -10 147 34 227 80 161 92 408 285 583 456
94 92 224 211 289 265 l119 98 51 -28 c84 -46 272 -171 378 -251 111 -85 334
-232 677 -449 209 -132 237 -147 267 -142 26 4 54 -3 116 -32 46 -21 127 -58
181 -81 53 -23 97 -45 97 -49 0 -4 -17 -15 -37 -25 -145 -69 -272 -184 -413
-371 -146 -195 -227 -269 -529 -485 -92 -65 -221 -165 -286 -222 -188 -162
-290 -234 -430 -304 -103 -51 -146 -67 -203 -75 -154 -21 -207 -53 -393 -236
-84 -82 -154 -143 -165 -143 -10 0 -43 -11 -72 -25 -90 -42 -101 -109 -43
-261 42 -108 116 -224 219 -342 52 -59 192 -237 312 -397 327 -436 380 -490
575 -588 127 -63 219 -81 273 -53 49 26 124 140 137 209 12 64 -1 87 -115 197
-95 93 -110 112 -124 160 -36 119 -59 265 -81 509 -21 236 -20 255 21 373 19
57 36 123 37 147 l2 43 275 183 c411 273 996 638 1265 790 66 37 228 123 359
192 401 207 543 308 602 429 24 50 26 63 22 137 -11 172 -128 450 -424 1008
-80 152 -92 181 -88 211 5 31 0 42 -54 109 -33 41 -122 142 -198 224 -165 179
-784 801 -868 872 l-58 50 133 95 c282 200 432 291 586 355 207 85 204 85 608
93 198 3 362 5 364 4 2 -2 -11 -60 -28 -131 -51 -216 -64 -307 -65 -473 l-1
-156 38 -77 c51 -103 152 -236 191 -252 30 -12 145 -27 316 -41 47 -3 130 -19
185 -34 189 -53 344 -66 579 -50 202 14 294 31 487 92 154 48 172 51 294 56
101 3 138 9 167 23 49 25 79 24 137 -5 127 -65 261 -84 383 -56 53 12 62 11
120 -10 35 -12 81 -33 104 -46 44 -26 87 -25 132 3 28 17 54 75 46 98 -5 11
-2 14 9 9 24 -9 81 23 101 58 11 18 19 49 18 75 0 36 3 43 20 43 28 0 78 53
78 84 0 13 -4 36 -9 49 -9 22 -7 25 17 30 27 6 62 51 62 80 0 24 -80 88 -154
125 -101 50 -166 70 -284 86 -59 9 -140 22 -180 31 -132 27 -163 19 -263 -70
-130 -117 -143 -123 -391 -172 l-223 -45 -145 11 c-183 14 -258 30 -362 77
-106 47 -286 108 -413 140 -55 14 -106 27 -113 29 -8 3 1 24 28 64 54 79 120
222 165 356 21 61 45 116 54 123 21 16 177 117 259 166 35 21 99 53 142 70 95
39 156 78 165 105 3 11 29 28 63 42 49 21 73 24 167 23 142 -1 209 -19 281
-76 30 -24 88 -68 129 -98 41 -30 90 -68 109 -83 26 -22 47 -29 83 -30 43 -2
48 0 61 28 21 44 41 64 100 102 48 31 52 37 52 72 0 56 18 67 77 47 52 -18 63
-12 63 37 0 25 3 27 43 27 23 0 62 -9 86 -20 83 -38 111 -22 111 66 0 25 7 83
15 128 8 44 18 99 21 121 6 42 50 91 135 150 29 21 45 41 51 64 13 47 52 105
90 134 23 16 58 27 113 36 111 16 125 27 125 99 0 46 -8 73 -36 132 -33 69
-104 332 -104 386 0 11 -12 43 -26 72 -21 43 -34 56 -80 78 -30 15 -64 41 -77
58 -12 17 -83 93 -158 169 -92 93 -143 137 -158 137 -52 0 -181 33 -234 60
-73 38 -106 38 -226 -2 -93 -31 -115 -34 -191 -27 -61 5 -161 -50 -233 -127
-34 -37 -88 -86 -120 -110 -37 -27 -83 -76 -127 -136 -38 -51 -85 -106 -104
-121 -34 -26 -36 -32 -36 -83 0 -30 -7 -84 -16 -119 l-16 -63 -80 54 c-102 70
-185 112 -369 185 -262 104 -316 116 -673 140 l-179 13 -53 72 c-62 83 -101
117 -239 206 -342 222 -846 436 -1040 443 -44 2 -96 1 -115 -2z"/>
</g>
</svg>
